# xmcd
#
# Track frame offsets: 
#        150
#        12251
#        30394
#        51219
#        64330
#        82320
#        97971
#        116351
#        132849
#        148145
#        162019
#        182949
#        208183
#
# Disc length: 2992 seconds
#
# Revision: 8
# Processed by: cddbd v1.5.2PL0 Copyright (c) Steve Scherf et al.
# Submitted via: ExactAudioCopy v0.99pb5
#
DISCID=b60bae0d
DTITLE=Delbert McClinton - Nothing Personal
DYEAR=2001
DGENRE=Country
TTITLE0=Livin' It Down
TTITLE1=Gotta Get It Worked On
TTITLE2=When Rita Leaves
TTITLE3=Squeeze Me In
TTITLE4=Birmingham Tonight
TTITLE5=Baggage Claim
TTITLE6=All Night Long
TTITLE7=Don't Leave Home Without It
TTITLE8=Desperation
TTITLE9=Nothin' Lasts Forever
TTITLE10=Read Me My Rights
TTITLE11=All There Is Of Me
TTITLE12=Watchin' The Rain
EXTD=
EXTT0=
EXTT1=
EXTT2=
EXTT3=
EXTT4=
EXTT5=
EXTT6=
EXTT7=
EXTT8=
EXTT9=
EXTT10=
EXTT11=
EXTT12=
PLAYORDER=
